<svg width="1423" height="255" viewBox="0 0 1423 255" fill="none" xmlns="http://www.w3.org/2000/svg">
<path d="M28.34 94.272H0.812001V68.232H28.34V63.768C28.34 42.44 33.052 26.692 42.476 16.524C51.9 6.108 66.16 0.899996 85.256 0.899996C89.72 0.899996 93.936 1.14799 97.904 1.64399C102.12 1.89198 106.832 2.63598 112.04 3.87598V29.916C109.312 29.172 105.964 28.676 101.996 28.428C98.276 27.932 94.556 27.684 90.836 27.684C79.18 27.684 70.872 30.288 65.912 35.496C61.2 40.704 58.844 49.88 58.844 63.024V68.232H106.46V94.272H58.844V252H28.34V94.272ZM175.28 4.61999V252H144.776V4.61999H175.28ZM267.039 36.24H234.303V4.61999H267.039V36.24ZM265.923 252H235.419V68.232H265.923V252ZM454.478 215.544V241.212C448.278 245.18 438.978 248.528 426.578 251.256C414.426 253.736 401.654 254.976 388.262 254.976C362.222 254.976 343.87 247.908 333.206 233.772C322.79 219.636 317.582 194.96 317.582 159.744C317.582 125.272 324.402 100.844 338.042 86.46C351.682 71.828 374.87 64.512 407.606 64.512C414.798 64.512 421.246 64.76 426.95 65.256C432.902 65.504 440.466 66.248 449.642 67.488V94.644C440.466 93.404 432.902 92.66 426.95 92.412C421.246 92.164 414.798 92.04 407.606 92.04C384.294 92.04 368.546 96.876 360.362 106.548C352.178 115.972 348.086 133.704 348.086 159.744C348.086 185.784 351.31 203.516 357.758 212.94C364.206 222.116 376.606 226.704 394.958 226.704C405.126 226.704 415.666 225.712 426.578 223.728C437.49 221.496 446.79 218.768 454.478 215.544ZM531.278 172.392V252H500.774V4.61999H531.278V145.98H553.226L617.582 68.232H654.41L578.15 157.512L658.13 252H619.814L554.342 172.392H531.278Z" fill="url(#paint0_linear_407_3242)"/>
<path d="M786.159 64.512C811.207 64.512 829.063 71.952 839.727 86.832C850.639 101.464 856.095 125.52 856.095 159C856.095 193.224 849.399 217.776 836.007 232.656C822.615 247.536 800.171 254.976 768.675 254.976C754.539 254.976 741.271 254.108 728.871 252.372C716.471 250.884 705.187 248.528 695.019 245.304V4.61999H725.523V80.88C734.203 75.672 743.751 71.704 754.167 68.976C764.583 66 775.247 64.512 786.159 64.512ZM825.591 159C825.591 133.952 821.995 116.592 814.803 106.92C807.859 97 794.715 92.04 775.371 92.04C766.443 92.04 757.639 93.28 748.959 95.76C740.279 97.992 732.467 101.216 725.523 105.432V221.868C730.979 223.356 737.179 224.596 744.123 225.588C751.067 226.332 758.631 226.704 766.815 226.704C789.879 226.704 805.379 221.868 813.315 212.196C821.499 202.524 825.591 184.792 825.591 159ZM949.11 254.976C930.262 254.976 916.374 250.512 907.446 241.584C898.766 232.408 894.426 218.024 894.426 198.432C894.426 178.592 899.758 164.58 910.422 156.396C921.086 147.964 939.19 143.748 964.734 143.748C973.166 143.748 981.474 144.12 989.658 144.864C997.842 145.608 1005.53 146.724 1012.72 148.212V130.356C1012.72 116.716 1009.25 106.92 1002.31 100.968C995.362 95.016 984.202 92.04 968.826 92.04C957.418 92.04 947.374 92.536 938.694 93.528C930.014 94.272 921.334 95.636 912.654 97.62V71.208C922.574 68.728 932.618 66.992 942.786 66C953.202 65.008 964.982 64.512 978.126 64.512C1000.2 64.512 1016.57 69.72 1027.23 80.136C1037.89 90.304 1043.23 106.176 1043.23 127.752V252H1015.33L1013.84 234.888H1013.09C1005.65 240.84 995.982 245.676 984.078 249.396C972.422 253.116 960.766 254.976 949.11 254.976ZM968.082 168.672C951.218 168.672 939.438 170.78 932.742 174.996C926.294 178.964 923.07 186.156 923.07 196.572C923.07 207.484 925.798 215.42 931.254 220.38C936.71 225.092 945.638 227.448 958.038 227.448C967.71 227.448 977.63 225.96 987.798 222.984C997.966 220.008 1006.27 216.288 1012.72 211.824V172.392C1004.54 171.152 996.85 170.284 989.658 169.788C982.714 169.044 975.522 168.672 968.082 168.672ZM1165.3 92.04C1149.43 92.04 1138.39 93.9 1132.19 97.62C1126.24 101.34 1123.27 108.904 1123.27 120.312C1123.27 126.264 1124.63 130.852 1127.36 134.076C1130.33 137.052 1134.92 139.036 1141.12 140.028L1188.37 147.096C1203.25 149.328 1213.66 154.04 1219.61 161.232C1225.57 168.176 1228.54 179.212 1228.54 194.34C1228.54 215.668 1223.46 231.168 1213.29 240.84C1203.12 250.264 1186.26 254.976 1162.7 254.976C1148.56 254.976 1135.42 254.232 1123.27 252.744C1111.11 251.256 1101.07 249.272 1093.13 246.792V218.148C1101.07 220.628 1110.74 222.736 1122.15 224.472C1133.81 225.96 1145.71 226.704 1157.86 226.704C1173.24 226.704 1183.78 224.472 1189.48 220.008C1195.19 215.544 1198.04 207.608 1198.04 196.2C1198.04 189.008 1196.43 183.8 1193.2 180.576C1189.98 177.104 1184.15 174.748 1175.72 173.508L1128.47 166.44C1116.57 164.704 1107.64 160.116 1101.69 152.676C1095.99 145.236 1093.01 134.448 1092.76 120.312C1092.76 100.968 1098.47 86.832 1109.87 77.904C1121.53 68.976 1139.39 64.512 1163.44 64.512C1173.36 64.512 1182.29 64.76 1190.23 65.256C1198.41 65.752 1206.97 66.744 1215.89 68.232V95.388C1209.45 94.396 1201.88 93.652 1193.2 93.156C1184.52 92.412 1175.22 92.04 1165.3 92.04ZM1414.71 216.288V241.956C1408.26 245.428 1398.72 248.528 1386.07 251.256C1373.67 253.736 1361.02 254.976 1348.12 254.976C1319.36 254.976 1298.77 247.536 1286.37 232.656C1273.97 217.776 1267.77 193.224 1267.77 159C1267.77 126.016 1274.22 102.084 1287.12 87.204C1300.01 72.076 1320.6 64.512 1348.87 64.512C1375.16 64.512 1394 70.464 1405.41 82.368C1416.82 94.024 1422.52 113.616 1422.52 141.144C1422.52 146.104 1422.4 150.692 1422.15 154.908C1421.9 159.124 1421.41 164.208 1420.66 170.16H1298.65C1298.9 190.496 1302.99 205.004 1310.92 213.684C1319.11 222.364 1333.12 226.704 1352.96 226.704C1363.62 226.704 1374.78 225.712 1386.44 223.728C1398.1 221.744 1407.52 219.264 1414.71 216.288ZM1394.62 137.052C1394.38 120.684 1390.78 109.152 1383.84 102.456C1376.89 95.512 1365.24 92.04 1348.87 92.04C1330.52 92.04 1317.5 96.008 1309.81 103.944C1302.37 111.632 1298.65 125.272 1298.65 144.864H1394.25C1394.25 144.368 1394.25 143.252 1394.25 141.516C1394.5 139.532 1394.62 138.044 1394.62 137.052Z" fill="white"/>
<defs>
<linearGradient id="paint0_linear_407_3242" x1="715.5" y1="-105" x2="715.5" y2="341" gradientUnits="userSpaceOnUse">
<stop offset="0.0572917" stop-color="#FFB800"/>
<stop offset="1" stop-color="#FF2372"/>
</linearGradient>
</defs>
</svg>
